<svg xmlns="http://www.w3.org/2000/svg" viewBox="150 150 724 724">
	<path
		d="M517.003 795.976c-5.05 6.971-9.883 13.661-15.148 20.951-3.73-5.172-6.746-9.526-9.935-13.75-28.61-37.898-57.411-75.652-85.834-113.688-25.14-33.643-49.543-67.82-69.658-104.805-16.13-29.658-29.868-60.29-36.124-93.765-10.039-53.712.732-103.275 30.663-148.63 25.905-39.255 61.124-67.17 105.892-81.927 55.853-18.412 110.177-14.34 162.41 13.473 4.096 2.18 4.825 3.67 1.955 7.705-16.512 23.213-32.803 46.583-48.978 70.033-2.378 3.447-4.294 3.759-8.163 2.28-41.625-15.902-79.653-9.207-112.992 20.108-23.726 20.86-35.73 47.872-35.642 79.568.102 36.827 16.48 65.547 45.824 87.113 18.17 13.353 38.947 20.15 61.277 19.72 36.398-.702 65.806-16.06 87.304-45.761 14.726-20.346 20.836-43.32 19.737-68.205-.248-5.633 1.584-8.092 6.793-10.108 25.935-10.041 51.686-20.559 77.519-30.867 5.783-2.307 6.01-2.03 7.386 4.2 9.965 45.124 4.137 88.587-13.357 130.938-16.639 40.284-39.532 76.959-64.25 112.616-33.805 48.764-71.304 94.766-106.679 142.801z" />
	<path
		d="M597.274 380.307c-30.273 24.247-60.264 48.28-90.2 72.27-1.536-1.445-.637-2.203-.095-2.972 39.635-56.245 78.704-112.89 118.914-168.731 2.592-3.6 4.673-4.67 8.913-2.306 15.42 8.602 31.064 16.803 46.597 25.203 1.573.85 3.391 1.464 4.925 4.234-29.494 23.95-59.133 48.02-89.054 72.302zM662.36 396.483l-118.508 46.984c-.655-2.345.593-2.838 1.451-3.48 42.4-31.678 84.168-64.182 125.968-96.641 3.438-2.67 5.53-2.206 9.001.188 10.289 7.095 14.279 15.263 11.673 28.483-1.956 9.921-4.286 16.525-14.82 18.757-4.972 1.054-9.615 3.662-14.766 5.709zM721.504 235.524c5.193-8.754 10.218-17.183 15.204-25.635 1.073-1.819 1.985-3.596 4.56-1.906 10.266 6.74 20.563 13.434 32.195 21.024l-74.25 47.171-1.127-1.132c7.745-13.069 15.49-26.137 23.418-39.522zM648.833 225.86c6.95-12.686 6.966-12.734 20.455-8.06 5.145 1.784 10.507 3.028 15.305 5.538.17 2.482-1.68 3.392-2.903 4.624-9.027 9.1-18.209 18.049-27.1 27.28-2.534 2.63-4.665 3.086-7.782 1.356-2.458-1.364-5.164-2.304-7.806-3.31-3.297-1.257-3.749-3.147-2.004-6.17 3.992-6.917 7.778-13.954 11.835-21.257zM724.552 338.711c-5.915 1.36-11.492 2.38-16.922 3.92-4.086 1.157-4.266-2.115-5.514-4.183-1.036-1.719-2.069-3.584.419-5.144 14.5-9.1 28.987-18.222 43.24-27.187 2.936 1.33 2.842 3.78 3.473 5.714 1.651 5.057 2.99 10.217 4.648 15.27 1.056 3.217.433 4.859-3.173 5.601-8.629 1.776-17.185 3.905-26.171 6.01zM741.055 374.992l5.631 9.355c-3.587 2.805-7.647 1.873-11.24 2.641-5.509 1.177-11.245 1.287-16.755 2.458-4.123.876-5.409-.877-6.847-4.28-1.826-4.316-.877-6.588 3.247-8.607 5.068-2.482 9.952-5.402 14.681-8.491 3.7-2.416 6.247-2.369 8.17 1.976.731 1.654 1.937 3.098 3.113 4.948z" />
</svg>