<svg xmlns="http://www.w3.org/2000/svg" viewBox="87 87 850 850">
	<path
		d="M565 386.591c9.166.009 17.834.146 26.496-.034 3.723-.078 4.953 1.337 4.894 4.968-.155 9.496-.164 19 .05 28.494.087 3.913-1.29 5.235-5.203 5.2-16.163-.142-32.33.131-48.492-.108-4.983-.073-6.665 1.422-6.594 6.53.264 19.161.1 38.328.115 57.492.005 6.728.032 6.623 7.014 6.856 35.981 1.202 71.984.274 107.965 1.1 46.983 1.077 93.979.131 140.957 1.082 37.656.762 75.314.373 112.969.801 1.58.018 3.27-.297 4.826.949-.947 1.664-2.376 1.329-3.573 1.362-25.143.698-50.29 1.238-75.43 2.072-32.955 1.094-65.903 2.424-98.856 3.634-9.986.366-19.973.755-29.964.986-22.65.522-45.304.941-67.955 1.423-45.807.974-91.615 1.807-137.433 1.978-7.781.029-7.756.02-7.75-7.587.017-23.83.02-47.66.015-71.49-.002-7.064-.039-7.133-7.353-7.143-15.998-.02-31.998-.12-47.993.12-4.642.069-6.14-1.532-6.005-6.08.265-8.824.306-17.671-.042-26.49-.195-4.945 1.687-6.18 6.359-6.165 43.494.13 86.989.061 130.983.05zM536.136 646.73c-.712 2.953-2.783 2.579-4.54 2.585-12.663.047-25.327-.033-37.99.09-3.304.032-4.164-1.181-4.166-4.435-.02-31.143-.237-62.286-.342-93.428-.015-4.325.097-8.667.467-12.973.39-4.531-.82-6.42-5.954-6.382-22.658.164-45.328.224-67.978-.336-42.815-1.06-85.643-.037-128.448-.992-36.986-.826-73.978-.062-110.952-1.01-18.993-.487-37.98-.408-56.971-.547-1.576-.011-3.298.5-5.15-1.048 2.673-1.353 5.29-1.297 7.867-1.377 24.304-.751 48.626-1.148 72.91-2.31 46.252-2.216 92.535-3.33 138.812-4.659 23.975-.687 47.972-.646 71.947-1.338 40.965-1.183 81.935-1.816 122.915-1.97 7.656-.03 7.67-.007 7.668 7.69-.007 40.656-.02 81.312-.095 122.44zM760.998 649.381c-5.994-.008-11.492-.12-16.983.018-2.863.072-4.17-1.116-4.785-3.85-.863-3.84-.933-7.89-2.606-11.454-1.86-.384-2.604.935-3.472 1.833-9.355 9.671-21.208 13.995-34.124 16.152-3.576.597-4.849-.839-4.787-4.292.175-9.818.265-19.639.285-29.46.006-2.45.474-4.086 3.294-4.614 23.826-4.462 31.94-21.66 33.726-40.058.4-4.125-.105-8.333.182-12.478.273-3.946-1.317-5.348-5.152-5.306-10.988.121-21.978.053-32.968.034-6.465-.011-6.625-.182-6.628-6.814-.003-8.325.088-16.651.005-24.976-.034-3.528 1.312-5.114 4.998-5.105 26.975.066 53.95.052 80.925-.025 3.352-.01 4.643 1.043 4.627 4.63-.144 30.621-.144 61.243-.1 91.864.013 9.486.206 18.974.491 28.456.12 3.969-1.174 5.854-5.443 5.504-3.639-.3-7.322-.06-11.485-.059zM643.245 561.983c-.212 9.54.435 18.465 3.876 26.963 5.402 13.344 15.163 21.667 29.235 24.612 3.576.749 5.106 2.042 5.036 5.846-.199 10.777-.07 21.56-.07 32.698-9.132.882-17.386-1.083-25.507-3.236-33.91-8.987-54.972-34.166-58.198-69.216-1.834-19.94-.374-39.93-.912-59.89-.08-2.947 1.174-4.033 4.126-4.228 12.31-.813 24.63-.413 36.943-.619 4.073-.068 5.589 1.523 5.54 5.614-.163 13.652-.067 27.306-.07 41.456zM285.862 516.08c-11.312.09-22.142.096-32.969.296-3.442.063-5.305-.807-5.186-4.713.547-17.97-.54-35.947.876-53.932 2.904-36.872 27.52-64.819 64.055-71.986 4.725-.927 9.436-1.959 14.297-2.136 2.85-.104 4.381.573 4.346 3.783-.112 10.328-.112 20.658-.055 30.986.014 2.693-1.278 3.826-3.745 4.358-22.506 4.852-32.945 23.554-33.19 44.561-.156 13.493-.037 26.989-.045 40.484-.005 7.974-.008 7.974-8.384 8.3zM426.339 450.915c.602 6.397 1.533 12.348 1.648 18.316.244 12.656-.025 25.322.106 37.982.04 3.85-1.336 5.21-5.254 5.232-11.989.067-23.98.4-35.961.842-3.935.145-5.284-1.313-5.239-5.197.152-12.993.108-25.989.027-38.983-.042-6.703-1.222-13.263-3.43-19.588-4.943-14.157-14.785-23.184-29.308-26.657-4.226-1.01-5.238-2.952-5.153-6.855.192-8.825.248-17.665-.054-26.485-.16-4.656 1.488-6.256 6.065-5.852 39.423 3.486 69.404 24.899 76.553 67.245z" />
	<path
		d="M252.358 534.98c12.283.032 24.102.197 35.917.07 4.415-.047 6.074 1.351 6.092 6.05.048 12.452-.943 24.926.884 37.364 2.57 17.486 14.123 30.797 31.283 34.859 3.711.878 4.912 2.32 4.841 5.96-.184 9.483-.156 18.974-.022 28.46.048 3.425-1.157 4.85-4.66 4.596-37.708-2.744-70.212-24.06-76.986-66.067-2.478-15.366-1.831-30.847-1.884-46.308-.01-2.885.718-4.942 4.535-4.984zM381.817 538.321c.649-2.278 2.173-2.436 3.698-2.433 12.824.021 25.649.075 38.473.11 2.413.006 3.78 1.138 3.824 3.59.397 21.97 1.552 44.087-6.971 65.028-10.504 25.807-30.762 39.75-57.255 45.584-4.852 1.069-9.86 1.44-14.8 2.088-3.34.438-4.94-.95-4.904-4.451.097-9.66.075-19.32.056-28.98-.006-3.061 1.068-4.623 4.4-5.435 19.015-4.636 30.378-18.37 32.495-37.714 1.347-12.316.415-24.622.984-37.387zM681.318 398.007c-.009 6.826-.109 13.156.01 19.482.055 2.92-.827 4.348-3.92 5.18-22.55 6.065-33.79 20.761-34.105 44.26-.092 6.827-.2 13.66.012 20.481.123 4.009-1.168 5.77-5.395 5.645-12.313-.363-24.633-.478-36.95-.683-2.111-.035-4.154-.18-4.169-3.024-.09-16.961-.924-33.988 4.273-50.501 9.43-29.964 30.58-46.602 60.547-53.16 5.197-1.137 10.428-2.074 15.802-2.04 2.768.018 3.927 1.143 3.869 3.87-.07 3.329.01 6.66.026 10.49zM760.768 415.29c10.29 14.045 14.616 29.673 15.591 46.49.272 4.685-1.056 6.598-6.015 6.474-10.983-.276-21.978-.174-32.966-.034-3.761.048-5.743-.784-5.992-5.157a48.438 48.438 0 00-2.794-13.636c-5.14-14.276-14.872-23.463-29.764-26.71-3.412-.743-4.814-2.102-4.779-5.557.095-9.49.027-18.982-.043-28.473-.025-3.364.924-5.437 4.872-5.007 24.515 2.672 46.363 10.547 61.89 31.61z" />
</svg>